PathFileType	4	(X/Y/Z)	C:/Users/cmwille/Documents/OptiTrack/OpenSim_Lab5_04202021/group4_jump_2.trc
DataRate	CameraRate	NumFrames	NumMarkers	Units	OrigDataRate	OrigDataStartFrame	OrigNumFrames
200	200	10	39	m	200	735	841
Frame#	Time	L.ASIS			L.Acromium			L.Ankle.Lat			L.Ankle.Med			L.Heel			L.Knee.Lat			L.Knee.Med			L.Midfoot.Lat			L.Midfoot.Sup			L.Shank.Front			L.Shank.Rear			L.Shank.Upper			L.Thigh.Front			L.Thigh.Rear			L.Thigh.Upper			L.Toe.Lat			L.Toe.Med			L.Toe.Tip			R.ASIS			R.Acromium			R.Ankle.Lat			R.Ankle.Med			R.Heel			R.Knee.Lat			R.Knee.Med			R.Midfoot.Lat			R.Midfoot.Sup			R.Shank.Front			R.Shank.Rear			R.Shank.Upper			R.Thigh.Front			R.Thigh.Rear			R.Thigh.Upper			R.Toe.Lat			R.Toe.Med			R.Toe.Tip			Sternum			Top.Head			V.Sacral			
		X1	Y1	Z1	X2	Y2	Z2	X3	Y3	Z3	X4	Y4	Z4	X5	Y5	Z5	X6	Y6	Z6	X7	Y7	Z7	X8	Y8	Z8	X9	Y9	Z9	X10	Y10	Z10	X11	Y11	Z11	X12	Y12	Z12	X13	Y13	Z13	X14	Y14	Z14	X15	Y15	Z15	X16	Y16	Z16	X17	Y17	Z17	X18	Y18	Z18	X19	Y19	Z19	X20	Y20	Z20	X21	Y21	Z21	X22	Y22	Z22	X23	Y23	Z23	X24	Y24	Z24	X25	Y25	Z25	X26	Y26	Z26	X27	Y27	Z27	X28	Y28	Z28	X29	Y29	Z29	X30	Y30	Z30	X31	Y31	Z31	X32	Y32	Z32	X33	Y33	Z33	X34	Y34	Z34	X35	Y35	Z35	X36	Y36	Z36	X37	Y37	Z37	X38	Y38	Z38	X39	Y39	Z39
735	3.675	0.409531	1.03724	2.31111	0.445533	1.53384	2.18284	0.536624	0.121576	2.16177	0.427677	0.121604	2.17988	0.483303	0.0691769	2.08231	0.491412	0.53384	2.23878	0.368479	0.504197	2.25253	0.564777	0.0456996	2.21011	0.432463	0.0418082	2.23759	0.452373	0.445575	2.27111	0.506159	0.368742	2.23674	0.503026	0.482058	2.20993	0.507769	0.709221	2.2492	0.439357	0.605641	2.13018	0.436352	0.685154	2.12145	0.563995	0.0567265	2.31743	0.433681	0.0525545	2.31759	0.488477	0.0686998	2.38335	0.0943015	1.0576	2.26924	0.0463342	1.51003	2.22298	-0.0313473	0.131083	2.15222	0.0767024	0.130415	2.18193	0.0240742	0.0697638	2.07358	0.025132	0.533228	2.24032	0.148584	0.52407	2.25488	-0.0667582	0.04831	2.19337	0.0664877	0.0448179	2.23157	0.0688661	0.464825	2.266	0.0244685	0.377877	2.24905	0.012651	0.484124	2.21562	0.0247216	0.726502	2.29495	0.0326357	0.623244	2.15772	0.0447521	0.697403	2.14303	-0.0808187	0.0405854	2.28035	0.0562723	0.048059	2.30648	-0.0045281	0.0713557	2.38008	0.277021	1.347	2.38582	0.344528	1.84135	2.41535	0.264957	1.06953	2.11861
736	3.68	0.409587	1.03726	2.31136	0.445629	1.53382	2.18246	0.536649	0.121558	2.16176	0.427723	0.121605	2.17986	0.4833	0.0691865	2.08234	0.491476	0.533849	2.23876	0.368546	0.50422	2.2525	0.564807	0.0456924	2.21012	0.432472	0.0418431	2.23759	0.452491	0.445567	2.27103	0.506265	0.368772	2.23666	0.503078	0.482067	2.20985	0.507874	0.709222	2.24937	0.43951	0.605739	2.1302	0.43651	0.68524	2.12153	0.564022	0.0567264	2.31744	0.433695	0.0525677	2.3176	0.488487	0.068692	2.38335	0.0943879	1.0576	2.2694	0.0463072	1.5099	2.22256	-0.0313356	0.131118	2.15229	0.0767035	0.13045	2.18202	0.0240817	0.0698075	2.07361	0.0251821	0.533242	2.24042	0.148562	0.524055	2.25504	-0.0668073	0.0483627	2.19334	0.0664899	0.044823	2.2316	0.0688704	0.464836	2.26609	0.0244619	0.377883	2.24912	0.0126888	0.484144	2.2157	0.0247307	0.726527	2.29502	0.0327049	0.623258	2.15777	0.0448906	0.697404	2.14313	-0.0808519	0.0405502	2.28035	0.0562442	0.0480598	2.30649	-0.00454324	0.0713026	2.38011	0.276979	1.34716	2.38554	0.344647	1.84144	2.41472	0.264739	1.06934	2.11874
737	3.685	0.409628	1.03729	2.31159	0.445728	1.53382	2.18216	0.53666	0.121558	2.16177	0.42775	0.121627	2.17987	0.483289	0.0691949	2.08235	0.491526	0.533837	2.23875	0.368617	0.504287	2.25254	0.564797	0.0456762	2.21009	0.432486	0.0418652	2.23761	0.452602	0.445588	2.27098	0.506385	0.36882	2.23664	0.503148	0.48207	2.20977	0.507946	0.709197	2.24951	0.439688	0.605829	2.13024	0.436705	0.68532	2.12161	0.564044	0.0567129	2.31744	0.43371	0.0525621	2.31759	0.488477	0.06869	2.38337	0.0944587	1.05761	2.26954	0.0462738	1.5098	2.22217	-0.0313138	0.131163	2.15237	0.0767071	0.130478	2.18207	0.024096	0.069851	2.07365	0.0252376	0.533274	2.2405	0.148555	0.524049	2.25515	-0.0668559	0.0484157	2.19333	0.0664861	0.0448159	2.23163	0.0688779	0.46488	2.2662	0.024487	0.377895	2.24919	0.012761	0.484156	2.21578	0.0247578	0.72653	2.29508	0.0327973	0.623298	2.15782	0.0450585	0.697427	2.14318	-0.0808607	0.0405898	2.28035	0.0562354	0.0480536	2.3065	-0.00454213	0.0712272	2.38014	0.276929	1.3473	2.38525	0.344729	1.84157	2.41417	0.264896	1.06934	2.11892
738	3.69	0.409674	1.0373	2.3118	0.445822	1.53383	2.18187	0.536696	0.12157	2.16178	0.427782	0.12173	2.17995	0.483278	0.0692122	2.08235	0.491606	0.533872	2.2388	0.368679	0.504315	2.2525	0.564816	0.0457087	2.21012	0.43249	0.0418776	2.23761	0.452703	0.445618	2.27095	0.506463	0.368863	2.23663	0.503202	0.482089	2.20975	0.508023	0.709223	2.24969	0.439841	0.6059	2.13032	0.436852	0.685401	2.12169	0.564049	0.0567133	2.31745	0.433718	0.0525793	2.3176	0.488487	0.0686677	2.38338	0.0945495	1.05759	2.26964	0.0462586	1.50964	2.22178	-0.0313101	0.131215	2.15243	0.0767025	0.130497	2.18211	0.0241191	0.0699266	2.07366	0.0253027	0.533305	2.24057	0.148588	0.523933	2.25518	-0.0669055	0.0484686	2.19333	0.066482	0.0448285	2.23165	0.0689075	0.46486	2.26626	0.0245348	0.377921	2.24925	0.0128271	0.48418	2.21582	0.0248037	0.726553	2.29512	0.0328818	0.623317	2.15786	0.045177	0.697458	2.14325	-0.080859	0.0405772	2.28036	0.0562228	0.0480481	2.30652	-0.00454211	0.0711856	2.38016	0.276933	1.34745	2.38498	0.344829	1.84179	2.41371	0.265011	1.06936	2.11909
739	3.695	0.409716	1.03728	2.31203	0.445906	1.53383	2.18158	0.536707	0.121584	2.1618	0.427807	0.121754	2.17996	0.483383	0.0694109	2.08236	0.491638	0.533891	2.23882	0.368814	0.5042	2.25213	0.564816	0.0456986	2.21011	0.432506	0.041874	2.2376	0.452751	0.445666	2.27091	0.506508	0.368903	2.23664	0.503241	0.482115	2.20975	0.508069	0.709235	2.24987	0.439999	0.606	2.13035	0.437031	0.685497	2.12178	0.564068	0.0566955	2.31747	0.433717	0.0525855	2.31762	0.48848	0.0686565	2.38339	0.0946331	1.05758	2.26974	0.0462176	1.50953	2.22139	-0.0312986	0.131237	2.15248	0.0767073	0.130528	2.18218	0.0241428	0.0699795	2.07368	0.025363	0.533341	2.2406	0.148629	0.52386	2.2552	-0.0669541	0.0485213	2.19331	0.0664606	0.0448427	2.23167	0.0689726	0.4649	2.26629	0.0245956	0.377965	2.24929	0.0128958	0.484215	2.21586	0.0248583	0.726583	2.29519	0.0329878	0.623368	2.15789	0.0452794	0.697501	2.14329	-0.0808605	0.0405709	2.28036	0.0562138	0.048059	2.30654	-0.0045432	0.0711424	2.38018	0.276918	1.34762	2.38469	0.344956	1.84185	2.413	0.265141	1.06938	2.11926
740	3.7	0.409775	1.03728	2.31225	0.446022	1.53384	2.18122	0.536727	0.121591	2.16181	0.42785	0.121788	2.17997	0.483268	0.0692445	2.08238	0.491671	0.533921	2.23887	0.368847	0.5042	2.25205	0.564799	0.0456629	2.2101	0.432517	0.0418848	2.23761	0.452745	0.445688	2.27088	0.506531	0.36894	2.23667	0.503274	0.482126	2.20976	0.508117	0.709226	2.25002	0.440118	0.606077	2.13039	0.43717	0.685578	2.12186	0.564091	0.0566824	2.31747	0.433729	0.0525839	2.31763	0.488486	0.0686332	2.38341	0.0947097	1.05758	2.26989	0.0461848	1.50946	2.221	-0.031283	0.131273	2.15251	0.0767399	0.130549	2.1822	0.0241578	0.0700287	2.07369	0.0254419	0.533367	2.24061	0.148686	0.523831	2.25518	-0.0670033	0.048574	2.1933	0.0664562	0.0448181	2.23166	0.0690504	0.464941	2.26631	0.0246932	0.378028	2.2493	0.0129772	0.484269	2.21586	0.0249359	0.72658	2.29524	0.0330729	0.623456	2.1579	0.0454308	0.697539	2.14334	-0.0808595	0.0405592	2.28035	0.0561948	0.048035	2.30654	-0.00455025	0.0711131	2.38021	0.276875	1.34782	2.38444	0.345023	1.84192	2.41235	0.265356	1.06947	2.1194
741	3.705	0.409821	1.03729	2.31248	0.44611	1.53382	2.18091	0.536754	0.1216	2.16183	0.427859	0.121787	2.17997	0.483246	0.0692361	2.08238	0.491709	0.533944	2.23894	0.368868	0.504218	2.25202	0.564802	0.045681	2.21012	0.432537	0.0418846	2.23761	0.452718	0.445734	2.27085	0.506535	0.368955	2.23671	0.503293	0.482166	2.20981	0.508167	0.709207	2.25014	0.440254	0.606159	2.13041	0.437333	0.685649	2.12195	0.564094	0.0566647	2.31747	0.433744	0.0525848	2.31763	0.488487	0.0686018	2.38342	0.0947823	1.05756	2.26996	0.0461449	1.50942	2.22066	-0.0312571	0.131311	2.15252	0.07674	0.130533	2.18222	0.0241731	0.0700635	2.07371	0.0255193	0.533386	2.24058	0.148765	0.523817	2.25518	-0.0670524	0.0486269	2.19328	0.0664608	0.0448324	2.23168	0.069142	0.464983	2.26627	0.0247888	0.378075	2.24928	0.0130642	0.484314	2.21584	0.0250126	0.726574	2.29528	0.0331798	0.623516	2.15791	0.0455342	0.6976	2.14337	-0.0808539	0.0405719	2.28036	0.0561964	0.0480274	2.30655	-0.00455587	0.0710875	2.38022	0.276852	1.34802	2.3842	0.345074	1.84201	2.4117	0.265504	1.06951	2.11959
742	3.71	0.409944	1.03742	2.31291	0.446196	1.5338	2.18068	0.536751	0.121587	2.16183	0.427886	0.12184	2.17999	0.483359	0.0694761	2.08238	0.491741	0.533962	2.239	0.368917	0.504194	2.25186	0.564827	0.0457234	2.21013	0.432539	0.0418851	2.23762	0.452677	0.445777	2.27084	0.506522	0.368974	2.23676	0.503318	0.482177	2.20986	0.508228	0.70921	2.25029	0.440382	0.60624	2.13046	0.437488	0.68576	2.12204	0.564126	0.0566595	2.31747	0.433735	0.0525823	2.31763	0.488495	0.0685861	2.38343	0.0948631	1.05756	2.27006	0.0461774	1.50933	2.22032	-0.031228	0.131346	2.15255	0.0767652	0.13056	2.18225	0.0241901	0.0701012	2.07372	0.0256025	0.533388	2.24052	0.148852	0.523853	2.25514	-0.0671015	0.0486798	2.19325	0.0664606	0.044827	2.23169	0.0692476	0.465078	2.26623	0.0248634	0.378132	2.24924	0.0131465	0.484357	2.21576	0.025121	0.726576	2.29532	0.0332657	0.623564	2.1579	0.045632	0.697658	2.1434	-0.0808791	0.0405687	2.28034	0.0561958	0.0480455	2.30655	-0.00456009	0.071065	2.38024	0.276791	1.34824	2.38394	0.345108	1.84212	2.41121	0.266061	1.06971	2.11984
743	3.715	0.41003	1.03746	2.31318	0.446272	1.53379	2.18043	0.536753	0.121605	2.16187	0.427892	0.121844	2.18	0.483352	0.0694729	2.08239	0.49177	0.533977	2.23906	0.368806	0.504545	2.25241	0.564821	0.0457134	2.21014	0.432532	0.0418938	2.23762	0.452605	0.44579	2.27082	0.506502	0.368993	2.23683	0.503331	0.482198	2.2099	0.508304	0.709171	2.25043	0.440498	0.606328	2.1305	0.437639	0.685836	2.12213	0.564134	0.0566584	2.31748	0.43374	0.0525846	2.31763	0.488484	0.0685362	2.38345	0.0949306	1.05752	2.27015	0.0462093	1.50927	2.21994	-0.0312093	0.131386	2.15256	0.0767817	0.13057	2.18227	0.0242193	0.0701215	2.07372	0.0256783	0.533398	2.24045	0.148964	0.523879	2.2551	-0.0671506	0.0487325	2.19325	0.0664765	0.0448352	2.2317	0.0693536	0.46509	2.26611	0.0249531	0.378183	2.2492	0.0132383	0.484385	2.21567	0.0252181	0.726541	2.29535	0.0333858	0.623636	2.15786	0.0457344	0.697725	2.14343	-0.0808622	0.0405813	2.28036	0.0561914	0.0480304	2.30657	-0.00455538	0.0710283	2.38025	0.276747	1.3484	2.38373	0.345103	1.84231	2.4107	0.266148	1.06976	2.12009
744	3.72	0.410123	1.03753	2.31356	0.446362	1.53378	2.1802	0.536753	0.121602	2.16188	0.4279	0.121857	2.18002	0.483345	0.0694718	2.0824	0.491809	0.533991	2.23912	0.368807	0.504552	2.25233	0.564782	0.0456629	2.21011	0.432522	0.0418882	2.23763	0.452523	0.445812	2.2708	0.506483	0.368996	2.23688	0.503355	0.482212	2.20995	0.508371	0.709167	2.25058	0.440626	0.606411	2.13053	0.437788	0.685938	2.12221	0.564124	0.0566709	2.31749	0.433746	0.0525817	2.31765	0.488494	0.0684864	2.38347	0.09502	1.05752	2.27028	0.0461974	1.50925	2.21956	-0.0311677	0.131377	2.15258	0.0767945	0.130577	2.1823	0.0242368	0.0701538	2.07374	0.025759	0.533421	2.24036	0.149062	0.523892	2.25502	-0.0671997	0.0487852	2.19324	0.0664624	0.0448177	2.23172	0.06945	0.465102	2.26599	0.0250294	0.378209	2.24911	0.0133221	0.484433	2.21556	0.0253222	0.72652	2.29536	0.0335172	0.623696	2.15782	0.0458208	0.697775	2.14342	-0.0808539	0.040556	2.28036	0.0561964	0.0480347	2.30657	-0.00455354	0.0709944	2.38026	0.276713	1.34855	2.38351	0.345135	1.84244	2.41013	0.266287	1.06984	2.12029
